<svg width="17" height="16" viewBox="0 0 17 16" fill="none" xmlns="http://www.w3.org/2000/svg">
<mask id="mask0_170_14646" style="mask-type:alpha" maskUnits="userSpaceOnUse" x="0" y="0" width="17" height="16">
<rect x="16.5" width="16" height="16" transform="rotate(90 16.5 0)" fill="#D9D9D9"/>
</mask>
<g mask="url(#mask0_170_14646)">
<path d="M8.49967 9.64975L13.3997 4.74975C13.5663 4.58308 13.7636 4.50253 13.9913 4.50808C14.2191 4.51364 14.4163 4.59975 14.583 4.76641C14.7497 4.93308 14.833 5.1303 14.833 5.35808C14.833 5.58586 14.7497 5.78308 14.583 5.94975L9.44967 11.0664C9.31634 11.1997 9.16634 11.2997 8.99967 11.3664C8.83301 11.4331 8.66634 11.4664 8.49967 11.4664C8.33301 11.4664 8.16634 11.4331 7.99967 11.3664C7.83301 11.2997 7.68301 11.1997 7.54967 11.0664L2.41634 5.93308C2.24967 5.76641 2.16912 5.57197 2.17467 5.34975C2.18023 5.12753 2.26634 4.93308 2.43301 4.76641C2.59967 4.59975 2.7969 4.51641 3.02467 4.51641C3.25245 4.51641 3.44967 4.59975 3.61634 4.76641L8.49967 9.64975Z" fill="#1C1B1F"/>
</g>
</svg>
