<svg width="17" height="18" viewBox="0 0 17 18" fill="none" xmlns="http://www.w3.org/2000/svg">
<path d="M8.18819 4.82864C8.27703 4.51672 8.35836 4.18195 8.43455 3.82266C8.5062 4.18118 8.58332 4.51508 8.66824 4.82602C8.96589 5.91575 9.36933 6.76235 10.0034 7.41458C10.6375 8.06681 11.4608 8.48197 12.5205 8.78846C12.8234 8.87608 13.1488 8.95566 13.4982 9.02961C13.1485 9.10791 12.8227 9.19154 12.5191 9.28291C11.4555 9.60302 10.6268 10.029 9.9842 10.6898C9.34163 11.3507 8.9274 12.203 8.61587 13.2969C8.52704 13.6088 8.4457 13.9436 8.36951 14.3029C8.29787 13.9444 8.22075 13.6105 8.13582 13.2995C7.83818 12.2098 7.43473 11.3632 6.80064 10.711C6.16653 10.0587 5.34328 9.64358 4.28361 9.33708C3.98066 9.24946 3.65528 9.16988 3.30587 9.09593C3.65558 9.01763 3.98141 8.93401 4.28499 8.84263C5.34855 8.52252 6.17726 8.09659 6.81987 7.43569C7.46244 6.77483 7.87666 5.92251 8.18819 4.82864Z" fill="white" stroke="#8E2210"/>
</svg>
